<?xml version="1.0" encoding="UTF-8"?>
<svg width="89px" height="95px" viewBox="0 0 89 95" version="1.1" xmlns="http://www.w3.org/2000/svg" xmlns:xlink="http://www.w3.org/1999/xlink">
    <!-- Generator: Sketch 55 (78076) - https://sketchapp.com -->
    <title>custom-website-icon</title>
    <desc>Created with Sketch.</desc>
    <g id="PPT-Assets" stroke="none" stroke-width="1" fill="none" fill-rule="evenodd">
        <g id="custom-website-icon" transform="translate(-7.000000, -6.000000)">
            <path d="M65.4304066,101 C93.6296465,101 84.6358942,86.5898726 84.6358942,58.2727273 C84.6358942,29.9555819 93.6296465,7 65.4304066,7 C37.2311667,7 2.56714824,33.5120091 14.3711661,58.2727273 C26.1751839,83.0334455 37.2311667,101 65.4304066,101 Z" id="Oval" fill="#1D7CEE"></path>
            <path d="M76.4304066,107 C104.629646,107 95.6358942,92.5898726 95.6358942,64.2727273 C95.6358942,35.9555819 104.629646,13 76.4304066,13 C48.2311667,13 13.5671482,39.5120091 25.3711661,64.2727273 C37.1751839,89.0334455 48.2311667,107 76.4304066,107 Z" id="Oval-Copy-17" fill="#1D7CEE" opacity="0.2" transform="translate(60.000000, 60.000000) scale(-1, -1) rotate(45.000000) translate(-60.000000, -60.000000) "></path>
            <g id="Group" transform="translate(31.318874, 32.000000)">
                <polygon id="Path" points="0 0 44 0 44 44 0 44"></polygon>
                <path d="M21.9999998,38.5 C16.1051177,38.5000001 10.6580218,35.3551179 7.71058063,30.2500001 C4.76313946,25.1448823 4.76313946,18.8551177 7.71058063,13.7499999 C10.6580218,8.64488213 16.1051177,5.49999991 21.9999998,5.5 C31.1126984,5.5 38.5,12.0664903 38.5,20.1666667 C38.5,22.1115876 37.6308061,23.9768496 36.0836309,25.3521164 C34.5364558,26.7273832 32.438036,27.5 30.25,27.5 L25.6666667,27.5 C23.9837023,27.472881 22.4984221,28.5950776 22.0647288,30.2214277 C21.6310354,31.8477777 22.3603299,33.5605276 23.8333333,34.375 C24.5838716,35.0675535 24.8097659,36.1613129 24.3949997,37.0945369 C23.9802335,38.0277609 23.0169983,38.5930183 21.9999998,38.5" id="Path" stroke="#FFFFFF" stroke-width="2.75" stroke-linecap="round" stroke-linejoin="round"></path>
                <circle id="Oval" stroke="#FFFFFF" stroke-width="2.75" fill="#FFFFFF" fill-rule="nonzero" stroke-linecap="round" stroke-linejoin="round" cx="13.75" cy="19.25" r="1"></circle>
                <circle id="Oval" stroke="#FFFFFF" stroke-width="2.75" fill="#FFFFFF" fill-rule="nonzero" stroke-linecap="round" stroke-linejoin="round" cx="22" cy="13.75" r="1"></circle>
                <circle id="Oval" stroke="#FFFFFF" stroke-width="2.75" fill="#FFFFFF" fill-rule="nonzero" stroke-linecap="round" stroke-linejoin="round" cx="30.25" cy="19.25" r="1"></circle>
            </g>
        </g>
    </g>
</svg>