<?xml version="1.0" encoding="UTF-8"?>
<svg width="93px" height="93px" viewBox="0 0 93 93" version="1.1" xmlns="http://www.w3.org/2000/svg" xmlns:xlink="http://www.w3.org/1999/xlink">
    <!-- Generator: Sketch 55 (78076) - https://sketchapp.com -->
    <title>dedicated-support-icon</title>
    <desc>Created with Sketch.</desc>
    <g id="PPT-Assets" stroke="none" stroke-width="1" fill="none" fill-rule="evenodd">
        <g id="dedicated-support-icon" transform="translate(-12.336362, -13.063560)">
            <path d="M66.8182772,101 C99.1169172,101 105.128365,80.7477082 97.8054639,54.4468024 C90.4825625,28.1458966 95.9671423,14 63.6685022,14 C31.3698622,14 19.866574,32.4436532 16.3697624,62.4739253 C12.8729509,92.5041974 34.5196372,101 66.8182772,101 Z" id="Oval-Copy-24" fill="#EE8F1D"></path>
            <path d="M66.8182772,101 C99.1169172,101 105.128365,80.7477082 97.8054639,54.4468024 C90.4825625,28.1458966 95.9671423,14 63.6685022,14 C31.3698622,14 19.866574,32.4436532 16.3697624,62.4739253 C12.8729509,92.5041974 34.5196372,101 66.8182772,101 Z" id="Oval-Copy-23" fill="#EE8F1D" opacity="0.2" transform="translate(58.298067, 57.500000) rotate(63.000000) translate(-58.298067, -57.500000) "></path>
            <g id="Group" transform="translate(36.336362, 36.063560)">
                <polygon id="Path" points="0 0 44 0 44 44 0 44"></polygon>
                <circle id="Oval" stroke="#FFFFFF" stroke-width="2.75" stroke-linecap="round" stroke-linejoin="round" cx="22" cy="22" r="7.33333333"></circle>
                <circle id="Oval" stroke="#FFFFFF" stroke-width="2.75" stroke-linecap="round" stroke-linejoin="round" cx="22" cy="22" r="16.5"></circle>
                <path d="M27.5,27.5 L33.6416667,33.6416667" id="Path" stroke="#FFFFFF" stroke-width="2.75" stroke-linecap="round" stroke-linejoin="round"></path>
                <path d="M16.5,27.5 L10.3583333,33.6416667" id="Path" stroke="#FFFFFF" stroke-width="2.75" stroke-linecap="round" stroke-linejoin="round"></path>
                <path d="M10.3583333,10.3583333 L16.5,16.5" id="Path" stroke="#FFFFFF" stroke-width="2.75" stroke-linecap="round" stroke-linejoin="round"></path>
                <path d="M33.6416667,10.3583333 L27.5,16.5" id="Path" stroke="#FFFFFF" stroke-width="2.75" stroke-linecap="round" stroke-linejoin="round"></path>
            </g>
        </g>
    </g>
</svg>