<?xml version="1.0" encoding="UTF-8"?>
<svg width="467px" height="449px" viewBox="0 0 467 449" version="1.1" xmlns="http://www.w3.org/2000/svg" xmlns:xlink="http://www.w3.org/1999/xlink">
    <!-- Generator: Sketch 55 (78076) - https://sketchapp.com -->
    <title>Group 5</title>
    <desc>Created with Sketch.</desc>
    <g id="Screens" stroke="none" stroke-width="1" fill="none" fill-rule="evenodd">
        <g id="Group-5" transform="translate(-95.654831, -114.850429)">
            <g id="Group-2-Copy-5" opacity="0.095577567" transform="translate(326.000000, 326.500000) rotate(-43.000000) translate(-326.000000, -326.500000) translate(104.000000, 88.000000)">
                <path d="M229.620614,456.138333 C355.421128,456.138333 252.398812,354.059256 252.398812,228.138333 C252.398812,102.21741 355.421128,0.138332721 229.620614,0.138332721 C103.820099,0.138332721 1.83863235,102.21741 1.83863235,228.138333 C1.83863235,354.059256 103.820099,456.138333 229.620614,456.138333 Z" id="Oval" fill="#CEDBE7"></path>
                <ellipse id="Oval-Copy" stroke="#58708D" stroke-width="6" cx="222" cy="256" rx="222" ry="221"></ellipse>
            </g>
            <g id="Group-3-Copy-2" transform="translate(219.654831, 248.850429)">
                <path d="M217.429198,83.9737965 C235.902756,90.8465397 245.139535,103.375227 245.139535,121.559859 C245.139535,141.685185 228.391964,158 207.732789,158 L134.632542,158 L45.8271726,158 C20.5945871,158 0.139534884,138.073514 0.139534884,113.492958 C0.139534884,92.5375586 11.8469941,76.0328637 35.2619124,63.9788731 C50.8718582,21.3262911 74.2867765,0 105.506668,0 C128.92211,0 146.822663,7.66737629 159.208329,23.0021288" id="Combined-Shape" stroke="#1D7CEE" stroke-width="15" stroke-linecap="round" stroke-linejoin="round"></path>
                <ellipse id="Oval" fill="#EE8E1D" fill-rule="nonzero" cx="186.639535" cy="54.5" rx="27.5" ry="26.5"></ellipse>
            </g>
        </g>
    </g>
</svg>