<?xml version="1.0" encoding="UTF-8"?>
<svg width="38px" height="63px" viewBox="0 0 38 63" version="1.1" xmlns="http://www.w3.org/2000/svg" xmlns:xlink="http://www.w3.org/1999/xlink">
    <!-- Generator: Sketch 52.6 (67491) - http://www.bohemiancoding.com/sketch -->
    <title>light copy</title>
    <desc>Created with Sketch.</desc>
    <g id="Page-1" stroke="none" stroke-width="1" fill="none" fill-rule="evenodd">
        <g id="light-copy" transform="translate(4.000000, 8.000000)" fill="#000000" stroke="#FFFFFF" stroke-width="6">
            <path d="M22.8830573,18.4419513 C24.3588225,18.4419513 25.8004345,18.8860606 27.0203679,19.7165094 C30.3770057,22.001483 31.2457611,26.5749125 28.9607876,29.9315503 L15.9102043,49.1029232 C14.5882834,51.0448315 12.1276331,51.8578965 9.90896333,51.0858943 C7.19938792,50.1430779 5.76714674,47.1822294 6.70996311,44.472654 L9.55717614,36.2900018 C9.65440328,36.0105791 9.70405097,35.7168216 9.70405097,35.4209667 C9.70405097,33.9604999 8.52010867,32.7765576 7.05964184,32.7765576 C5.75731315,32.7765576 4.47639167,32.4452459 3.33738896,31.8137929 C-0.370721591,29.7580494 -1.71022975,25.0855225 0.345513751,21.3774119 L13.1317875,-1.68622249 C14.348604,-3.88109264 16.9131513,-4.95345086 19.3301614,-4.27805505 C22.2128461,-3.47253373 23.8967197,-0.482651987 23.0911984,2.40003273 L19.7589143,14.3251354 C19.6794992,14.609335 19.6392345,14.9030418 19.6392345,15.1981285 C19.6392345,16.9896424 21.0915434,18.4419513 22.8830573,18.4419513 Z" id="Path"></path>
        </g>
    </g>
</svg>