<?xml version="1.0" encoding="UTF-8"?>
<svg width="1224px" height="262px" viewBox="0 0 1224 262" version="1.1" xmlns="http://www.w3.org/2000/svg" xmlns:xlink="http://www.w3.org/1999/xlink">
    <!-- Generator: Sketch 55 (78076) - https://sketchapp.com -->
    <title>Group 5 Copy</title>
    <desc>Created with Sketch.</desc>
    <g id="Logos-Innoget-Approved" stroke="none" stroke-width="1" fill="none" fill-rule="evenodd">
        <g id="Group-5-Copy" transform="translate(-34.000000, -32.000000)">
            <g id="Group-Copy-3">
                <path d="M185.354299,279.095632 C239.436568,269.113535 280.403697,221.711063 280.403697,164.740206 C280.403697,142.241352 274.014434,121.234791 262.951361,103.435977 C242.433556,70.4259246 205.83963,48.4492966 164.112788,48.4492966 C99.8870927,48.4492966 47.8218792,100.51451 47.8218792,164.740206 C47.8218792,184.778622 52.890115,203.633289 61.8146272,220.092246 C64.6068055,225.241697 67.7764565,230.156644 71.2864638,234.79997" id="Oval" stroke="#1D7CEE" stroke-width="28" stroke-linecap="round" stroke-linejoin="round" transform="translate(164.112788, 163.772464) rotate(-131.000000) translate(-164.112788, -163.772464) "></path>
                <circle id="Oval-Copy" fill="#1D7CEE" cx="164" cy="164" r="53"></circle>
                <circle id="Oval-Copy-2" fill="#EE8E1D" cx="281" cy="117.5" r="37.5"></circle>
            </g>
            <g id="Group-Copy-2" transform="translate(358.000000, 43.000000)" fill="#3186F6" fill-rule="nonzero">
                <path d="M18.0154972,187.709858 C23.2458028,187.709858 27.6043909,186.208567 31.0912613,183.205984 C34.5781317,180.203401 36.3215669,175.893241 36.3215669,170.275506 L36.3215669,170.275506 L36.3215669,58.1145071 C36.3215669,52.4967714 34.5781317,48.2350409 31.0912613,45.3293155 C27.6043909,42.4235902 23.2458028,40.9707275 18.0154972,40.9707275 C12.7851916,40.9707275 8.47503229,42.4235902 5.08501937,45.3293155 C1.69500646,48.2350409 0,52.4967714 0,58.1145071 L0,58.1145071 L0,170.275506 C0,175.893241 1.69500646,180.203401 5.08501937,183.205984 C8.47503229,186.208567 12.7851916,187.709858 18.0154972,187.709858 Z M164.65777,187.709858 C170.275506,187.709858 174.682523,186.160138 177.87882,183.060697 C181.075118,179.961257 182.673267,175.699526 182.673267,170.275506 L182.673267,170.275506 L182.673267,98.7946621 C182.673267,79.2294447 178.508394,64.6039604 170.178648,54.9182092 C161.848902,45.232458 149.160568,40.3895824 132.113646,40.3895824 C121.84675,40.3895824 112.645286,42.5204477 104.509255,46.7821782 C96.3732243,51.0439087 89.883771,57.145932 85.0408954,65.088248 L85.0408954,65.088248 L85.0408954,57.2427895 C85.0408954,52.3999139 83.4427464,48.4771847 80.2464486,45.4746018 C77.0501507,42.4720189 72.9337064,40.9707275 67.8971158,40.9707275 C62.2793801,40.9707275 57.8239346,42.5204477 54.5307792,45.6198881 C51.2376238,48.7193285 49.5910461,52.787344 49.5910461,57.8239346 L49.5910461,57.8239346 L49.5910461,170.275506 C49.5910461,175.699526 51.189195,179.961257 54.3854929,183.060697 C57.5817908,186.160138 61.9888076,187.709858 67.6065433,187.709858 C73.2242789,187.709858 77.6797245,186.160138 80.9728799,183.060697 C84.2660353,179.961257 85.912613,175.699526 85.912613,170.275506 L85.912613,170.275506 L85.912613,105.47783 C85.912613,94.436074 89.0604821,85.6220405 95.3562204,79.0357297 C101.651959,72.4494189 110.030133,69.1562635 120.490745,69.1562635 C129.401636,69.1562635 135.939518,71.6745588 140.104391,76.7111494 C144.269264,81.74774 146.3517,89.7869135 146.3517,100.82867 L146.3517,100.82867 L146.3517,170.275506 C146.3517,175.699526 147.998278,179.961257 151.291433,183.060697 C154.584589,186.160138 159.040034,187.709858 164.65777,187.709858 Z M310.428325,187.709858 C316.046061,187.709858 320.453078,186.160138 323.649376,183.060697 C326.845674,179.961257 328.443823,175.699526 328.443823,170.275506 L328.443823,170.275506 L328.443823,98.7946621 C328.443823,79.2294447 324.27895,64.6039604 315.949204,54.9182092 C307.619458,45.232458 294.931124,40.3895824 277.884201,40.3895824 C267.617305,40.3895824 258.415842,42.5204477 250.279811,46.7821782 C242.14378,51.0439087 235.654326,57.145932 230.811451,65.088248 L230.811451,65.088248 L230.811451,57.2427895 C230.811451,52.3999139 229.213302,48.4771847 226.017004,45.4746018 C222.820706,42.4720189 218.704262,40.9707275 213.667671,40.9707275 C208.049935,40.9707275 203.59449,42.5204477 200.301334,45.6198881 C197.008179,48.7193285 195.361601,52.787344 195.361601,57.8239346 L195.361601,57.8239346 L195.361601,170.275506 C195.361601,175.699526 196.95975,179.961257 200.156048,183.060697 C203.352346,186.160138 207.759363,187.709858 213.377099,187.709858 C218.994834,187.709858 223.45028,186.160138 226.743435,183.060697 C230.036591,179.961257 231.683168,175.699526 231.683168,170.275506 L231.683168,170.275506 L231.683168,105.47783 C231.683168,94.436074 234.831037,85.6220405 241.126776,79.0357297 C247.422514,72.4494189 255.800689,69.1562635 266.2613,69.1562635 C275.172191,69.1562635 281.710073,71.6745588 285.874946,76.7111494 C290.039819,81.74774 292.122256,89.7869135 292.122256,100.82867 L292.122256,100.82867 L292.122256,170.275506 C292.122256,175.699526 293.768833,179.961257 297.061989,183.060697 C300.355144,186.160138 304.81059,187.709858 310.428325,187.709858 Z M413.194146,188.291003 C427.722772,188.291003 440.459535,185.28842 451.404434,179.283254 C462.349333,173.278089 470.775936,164.65777 476.684245,153.422299 C482.592553,142.186827 485.546707,129.111063 485.546707,114.195006 C485.546707,99.2789496 482.592553,86.2516143 476.684245,75.1130004 C470.775936,63.9743866 462.349333,55.4024968 451.404434,49.397331 C440.459535,43.3921653 427.722772,40.3895824 413.194146,40.3895824 C398.665519,40.3895824 385.928756,43.3921653 374.983857,49.397331 C364.038958,55.4024968 355.563926,63.9743866 349.55876,75.1130004 C343.553594,86.2516143 340.551012,99.2789496 340.551012,114.195006 C340.551012,129.111063 343.553594,142.186827 349.55876,153.422299 C355.563926,164.65777 364.038958,173.278089 374.983857,179.283254 C385.928756,185.28842 398.665519,188.291003 413.194146,188.291003 Z M412.903573,160.105467 C401.280672,160.105467 392.36978,156.231167 386.1709,148.482566 C379.972019,140.733965 376.872579,129.304778 376.872579,114.195006 C376.872579,99.2789496 380.020448,87.898192 386.316186,80.0527335 C392.611924,72.2072751 401.571244,68.2845458 413.194146,68.2845458 C424.817047,68.2845458 433.727938,72.2072751 439.926819,80.0527335 C446.1257,87.898192 449.22514,99.2789496 449.22514,114.195006 C449.22514,129.304778 446.1257,140.733965 439.926819,148.482566 C433.727938,156.231167 424.720189,160.105467 412.903573,160.105467 Z M570.587602,240.594059 C594.80198,240.594059 613.10805,234.879466 625.505811,223.45028 C637.903573,212.021093 644.102454,195.167886 644.102454,172.890659 L644.102454,172.890659 L644.102454,58.1145071 C644.102454,52.8842015 642.455876,48.7193285 639.162721,45.6198881 C635.869565,42.5204477 631.510977,40.9707275 626.086957,40.9707275 C620.662936,40.9707275 616.304348,42.5204477 613.011192,45.6198881 C609.718037,48.7193285 608.071459,52.787344 608.071459,57.8239346 L608.071459,57.8239346 L608.071459,65.3788205 C603.809729,57.4365045 597.610848,51.2860525 589.474817,46.9274645 C581.338786,42.5688765 572.040465,40.3895824 561.579854,40.3895824 C549.182092,40.3895824 538.140336,43.3437365 528.454585,49.2520448 C518.768833,55.160353 511.262376,63.490099 505.935213,74.2412828 C500.60805,84.9924666 497.944468,97.3417994 497.944468,111.289281 C497.944468,125.236763 500.656479,137.537667 506.080499,148.191993 C511.50452,158.846319 519.010977,167.127637 528.599871,173.035945 C538.188765,178.944253 549.182092,181.898407 561.579854,181.898407 C572.040465,181.898407 581.338786,179.719113 589.474817,175.360525 C597.610848,171.001937 603.809729,164.851485 608.071459,156.909169 L608.071459,156.909169 L608.071459,175.505811 C608.071459,200.301334 595.383125,212.699096 570.006457,212.699096 C562.839001,212.699096 556.494834,211.924236 550.973956,210.374516 C545.453078,208.824796 539.205768,206.597073 532.232028,203.691347 C529.520017,202.529057 526.904864,201.512053 524.386569,200.640336 C521.868274,199.768618 519.737409,199.332759 517.993973,199.332759 C514.700818,199.332759 512.037236,200.591907 510.003229,203.110202 C507.969221,205.628498 506.952217,209.018511 506.952217,213.280241 C506.952217,219.285407 510.535945,224.418855 517.703401,228.680585 C531.844598,236.622901 549.472665,240.594059 570.587602,240.594059 Z M571.168747,153.712871 C559.739561,153.712871 550.731812,149.935428 544.145502,142.380542 C537.559191,134.825656 534.266035,124.461903 534.266035,111.289281 C534.266035,97.9229445 537.559191,87.4623332 544.145502,79.9074473 C550.731812,72.3525613 559.739561,68.5751184 571.168747,68.5751184 C582.791649,68.5751184 591.847826,72.3525613 598.337279,79.9074473 C604.826733,87.4623332 608.071459,97.9229445 608.071459,111.289281 C608.071459,124.461903 604.826733,134.825656 598.337279,142.380542 C591.847826,149.935428 582.791649,153.712871 571.168747,153.712871 Z M731.177357,188.291003 C738.732243,188.291003 746.674559,187.177142 755.004305,184.949419 C763.334051,182.721696 770.792079,179.767542 777.37839,176.086957 C784.545846,172.018941 788.129574,166.98235 788.129574,160.977185 C788.129574,156.715454 787.11257,153.325441 785.078562,150.807146 C783.044554,148.288851 780.380973,147.029703 777.087817,147.029703 C774.375807,147.029703 770.114077,148.579423 764.302626,151.678864 C758.29746,154.390874 752.921868,156.521739 748.17585,158.071459 C743.429832,159.62118 737.957383,160.39604 731.758502,160.39604 C719.554455,160.39604 710.256134,157.24817 703.863539,150.952432 C697.470943,144.656694 693.6935,134.825656 692.53121,121.45932 L692.53121,121.45932 L778.250108,121.45932 C785.611279,121.45932 789.291864,117.294447 789.291864,108.964701 C789.291864,95.0172191 786.676711,82.9100301 781.446406,72.6431339 C776.2161,62.3762376 768.854929,54.4339217 759.362893,48.816186 C749.870857,43.1984503 738.732243,40.3895824 725.947051,40.3895824 C712.580715,40.3895824 700.618812,43.4890228 690.061343,49.6879036 C679.503874,55.8867843 671.319415,64.6039604 665.507964,75.8394318 C659.696513,87.0749031 656.790788,99.9569522 656.790788,114.485579 C656.790788,137.343952 663.473956,155.359449 676.840293,168.532071 C690.206629,181.704692 708.318984,188.291003 731.177357,188.291003 Z M758.200603,101.99096 L692.53121,101.99096 C693.6935,90.3680585 697.228799,81.4571675 703.137107,75.2582867 C709.045415,69.0594059 716.939303,65.9599656 726.818769,65.9599656 C736.50452,65.9599656 744.059406,69.0109772 749.483427,75.1130004 C754.907447,81.2150237 757.813173,90.1743435 758.200603,101.99096 L758.200603,101.99096 Z M878.20706,187.419285 C885.180801,187.806715 890.556393,186.789712 894.333836,184.368274 C898.111279,181.946836 900,178.411537 900,173.762376 C900,165.626345 895.157124,161.267757 885.471373,160.686612 L885.471373,160.686612 L877.625915,160.105467 C864.453293,159.136892 857.866982,151.485149 857.866982,137.150237 L857.866982,137.150237 L857.866982,71.1902712 L882.565648,71.1902712 C887.795954,71.1902712 891.81554,70.0279811 894.624408,67.7034008 C897.433276,65.3788205 898.83771,61.9888076 898.83771,57.533362 C898.83771,53.0779165 897.433276,49.6879036 894.624408,47.3633233 C891.81554,45.038743 887.795954,43.8764529 882.565648,43.8764529 L882.565648,43.8764529 L857.866982,43.8764529 L857.866982,17.1437796 C857.866982,11.913474 856.220405,7.74860095 852.927249,4.64916057 C849.634094,1.54972019 845.275506,8.52651283e-14 839.851485,8.52651283e-14 C834.233749,8.52651283e-14 829.778304,1.54972019 826.485149,4.64916057 C823.191993,7.74860095 821.545415,11.913474 821.545415,17.1437796 L821.545415,17.1437796 L821.545415,43.8764529 L807.016789,43.8764529 C801.786483,43.8764529 797.766896,45.038743 794.958028,47.3633233 C792.149161,49.6879036 790.744727,53.0779165 790.744727,57.533362 C790.744727,61.9888076 792.149161,65.3788205 794.958028,67.7034008 C797.766896,70.0279811 801.786483,71.1902712 807.016789,71.1902712 L807.016789,71.1902712 L821.545415,71.1902712 L821.545415,134.535084 C821.545415,167.079208 837.817477,184.51356 870.361601,186.83814 L870.361601,186.83814 L878.20706,187.419285 Z" id="innoget"></path>
            </g>
        </g>
    </g>
</svg>