<?xml version="1.0" encoding="UTF-8"?>
<svg width="449px" height="60px" viewBox="0 0 449 60" version="1.1" xmlns="http://www.w3.org/2000/svg" xmlns:xlink="http://www.w3.org/1999/xlink">
    <!-- Generator: Sketch 63 (92445) - https://sketch.com -->
    <title>Group 4</title>
    <desc>Created with Sketch.</desc>
    <g id="Screens" stroke="none" stroke-width="1" fill="none" fill-rule="evenodd">
        <g id="Group-4" transform="translate(4.000000, 0.000000)">
            <path d="M95.1805714,47.4107143 C96.3942857,47.4107143 97.4057143,47.0657826 98.2148571,46.3759194 C99.024,45.6860561 99.4285714,44.6957685 99.4285714,43.4050566 L99.4285714,43.4050566 L99.4285714,17.6353253 C99.4285714,16.3446134 99.024,15.3654526 98.2148571,14.697843 C97.4057143,14.0302334 96.3942857,13.6964286 95.1805714,13.6964286 C93.9668571,13.6964286 92.9666667,14.0302334 92.18,14.697843 C91.3933333,15.3654526 91,16.3446134 91,17.6353253 L91,17.6353253 L91,43.4050566 C91,44.6957685 91.3933333,45.6860561 92.18,46.3759194 C92.9666667,47.0657826 93.9668571,47.4107143 95.1805714,47.4107143 Z M129.006784,47.4107143 C130.296527,47.4107143 131.308309,47.0560604 132.042128,46.3467526 C132.775947,45.6374448 133.142857,44.6621466 133.142857,43.420858 L133.142857,43.420858 L133.142857,27.0624472 C133.142857,22.5849418 132.186668,19.2378957 130.27429,17.0213088 C128.361913,14.804722 125.448872,13.6964286 121.535168,13.6964286 C119.178052,13.6964286 117.065541,14.1840777 115.197637,15.1593759 C113.329733,16.1346741 111.839858,17.5311238 110.72801,19.348725 L110.72801,19.348725 L110.72801,17.5532897 C110.72801,16.4449962 110.3611,15.5472786 109.627281,14.8601367 C108.893461,14.1729947 107.948391,13.8294238 106.79207,13.8294238 C105.502326,13.8294238 104.479427,14.1840777 103.72337,14.8933855 C102.967314,15.6026932 102.589286,16.5336597 102.589286,17.6862849 L102.589286,17.6862849 L102.589286,43.420858 C102.589286,44.6621466 102.956195,45.6374448 103.690015,46.3467526 C104.423834,47.0560604 105.435616,47.4107143 106.725359,47.4107143 C108.015102,47.4107143 109.038002,47.0560604 109.794058,46.3467526 C110.550114,45.6374448 110.928143,44.6621466 110.928143,43.420858 L110.928143,43.420858 L110.928143,28.5918921 C110.928143,26.0649831 111.650843,24.0478891 113.096245,22.54061 C114.541647,21.033331 116.465143,20.2796915 118.866734,20.2796915 C120.912534,20.2796915 122.413528,20.856004 123.369717,22.0086292 C124.325906,23.1612543 124.804,25.0010214 124.804,27.5279304 L124.804,27.5279304 L124.804,43.420858 C124.804,44.6621466 125.182028,45.6374448 125.938085,46.3467526 C126.694141,47.0560604 127.717041,47.4107143 129.006784,47.4107143 Z M162.72107,47.4107143 C164.010813,47.4107143 165.022594,47.0560604 165.756414,46.3467526 C166.490233,45.6374448 166.857143,44.6621466 166.857143,43.420858 L166.857143,43.420858 L166.857143,27.0624472 C166.857143,22.5849418 165.900954,19.2378957 163.988576,17.0213088 C162.076198,14.804722 159.163158,13.6964286 155.249454,13.6964286 C152.892337,13.6964286 150.779827,14.1840777 148.911923,15.1593759 C147.044019,16.1346741 145.554143,17.5311238 144.442296,19.348725 L144.442296,19.348725 L144.442296,17.5532897 C144.442296,16.4449962 144.075386,15.5472786 143.341567,14.8601367 C142.607747,14.1729947 141.662677,13.8294238 140.506355,13.8294238 C139.216612,13.8294238 138.193712,14.1840777 137.437656,14.8933855 C136.6816,15.6026932 136.303571,16.5336597 136.303571,17.6862849 L136.303571,17.6862849 L136.303571,43.420858 C136.303571,44.6621466 136.670481,45.6374448 137.404301,46.3467526 C138.13812,47.0560604 139.149901,47.4107143 140.439644,47.4107143 C141.729388,47.4107143 142.752287,47.0560604 143.508344,46.3467526 C144.2644,45.6374448 144.642428,44.6621466 144.642428,43.420858 L144.642428,43.420858 L144.642428,28.5918921 C144.642428,26.0649831 145.365129,24.0478891 146.810531,22.54061 C148.255933,21.033331 150.179429,20.2796915 152.58102,20.2796915 C154.62682,20.2796915 156.127814,20.856004 157.084003,22.0086292 C158.040192,23.1612543 158.518286,25.0010214 158.518286,27.5279304 L158.518286,27.5279304 L158.518286,43.420858 C158.518286,44.6621466 158.896314,45.6374448 159.652371,46.3467526 C160.408427,47.0560604 161.431327,47.4107143 162.72107,47.4107143 Z M184.801639,47.4107143 C188.179824,47.4107143 191.141366,46.7262723 193.686265,45.3573884 C196.231165,43.9885045 198.190512,42.0234938 199.564307,39.4623562 C200.938102,36.9012185 201.625,33.9205842 201.625,30.5204533 C201.625,27.1203223 200.938102,24.1507274 199.564307,21.6116685 C198.190512,19.0726097 196.231165,17.1186383 193.686265,15.7497544 C191.141366,14.3808705 188.179824,13.6964286 184.801639,13.6964286 C181.423454,13.6964286 178.461912,14.3808705 175.917013,15.7497544 C173.372113,17.1186383 171.401505,19.0726097 170.005189,21.6116685 C168.608873,24.1507274 167.910714,27.1203223 167.910714,30.5204533 C167.910714,33.9205842 168.608873,36.9012185 170.005189,39.4623562 C171.401505,42.0234938 173.372113,43.9885045 175.917013,45.3573884 C178.461912,46.7262723 181.423454,47.4107143 184.801639,47.4107143 Z M184.209337,41.0892857 C181.670611,41.0892857 179.724254,40.2001959 178.370267,38.4220163 C177.016279,36.6438366 176.339286,34.0210217 176.339286,30.5535714 C176.339286,27.1305756 177.026857,24.5188743 178.402001,22.7184675 C179.777144,20.9180606 181.734079,20.0178571 184.272806,20.0178571 C186.811532,20.0178571 188.757889,20.9180606 190.111876,22.7184675 C191.465863,24.5188743 192.142857,27.1305756 192.142857,30.5535714 C192.142857,34.0210217 191.465863,36.6438366 190.111876,38.4220163 C188.757889,40.2001959 186.790376,41.0892857 184.209337,41.0892857 Z M222.595889,59 C228.181423,59 232.404087,57.7068647 235.263881,55.120594 C238.123675,52.5343234 239.553571,48.7206701 239.553571,43.679634 L239.553571,43.679634 L239.553571,17.7073398 C239.553571,16.5237922 239.173755,15.5813377 238.414122,14.8799762 C237.65449,14.1786146 236.649094,13.8279339 235.397934,13.8279339 C234.146774,13.8279339 233.141378,14.1786146 232.381745,14.8799762 C231.622113,15.5813377 231.242296,16.5018747 231.242296,17.6415872 L231.242296,17.6415872 L231.242296,19.3511559 C230.259242,17.553917 228.829345,16.1621527 226.952606,15.1758631 C225.075866,14.1895734 222.931021,13.6964286 220.51807,13.6964286 C217.658277,13.6964286 215.111273,14.3649138 212.877059,15.7018842 C210.642845,17.0388546 208.91133,18.9237637 207.682512,21.3566115 C206.453694,23.7894594 205.839286,26.5839467 205.839286,29.7400736 C205.839286,32.8962005 206.464866,35.6797291 207.716025,38.0906593 C208.967185,40.5015896 210.698701,42.3755399 212.910572,43.7125104 C215.122444,45.0494808 217.658277,45.717966 220.51807,45.717966 C222.931021,45.717966 225.075866,45.2248212 226.952606,44.2385315 C228.829345,43.2522419 230.259242,41.8604776 231.242296,40.0632386 L231.242296,40.0632386 L231.242296,44.2714078 C231.242296,49.8823001 228.315476,52.6877462 222.461836,52.6877462 C220.808518,52.6877462 219.345108,52.5124058 218.071606,52.1617251 C216.798104,51.8110443 215.357036,51.3069407 213.748402,50.6494143 C213.122823,50.3864037 212.519585,50.1562694 211.938689,49.9590115 C211.357794,49.7617536 210.866267,49.6631246 210.464108,49.6631246 C209.704476,49.6631246 209.090067,49.9480527 208.620882,50.517909 C208.151697,51.0877652 207.917105,51.8548794 207.917105,52.8192515 C207.917105,54.1781395 208.743764,55.3397695 210.397082,56.3041416 C213.659034,58.1013805 217.725303,59 222.595889,59 Z M221.642857,38.9821429 C219.032433,38.9821429 216.975066,38.0939785 215.470754,36.3176499 C213.966442,34.5413213 213.214286,32.1045628 213.214286,29.0073745 C213.214286,25.8646392 213.966442,23.4051073 215.470754,21.6287786 C216.975066,19.85245 219.032433,18.9642857 221.642857,18.9642857 C224.297525,18.9642857 226.365954,19.85245 227.848144,21.6287786 C229.330334,23.4051073 230.071429,25.8646392 230.071429,29.0073745 C230.071429,32.1045628 229.330334,34.5413213 227.848144,36.3176499 C226.365954,38.0939785 224.297525,38.9821429 221.642857,38.9821429 Z M258.813596,47.4107143 C260.555686,47.4107143 262.387114,47.1568084 264.307879,46.6489966 C266.228645,46.1411849 267.9484,45.4677823 269.467144,44.6287889 C271.119896,43.7014805 271.946272,42.5533843 271.946272,41.1845004 C271.946272,40.2130344 271.71176,39.4402774 271.242736,38.8662293 C270.773712,38.2921812 270.159513,38.0051572 269.400141,38.0051572 C268.774775,38.0051572 267.792058,38.3584175 266.451989,39.0649383 C265.067251,39.6831439 263.827688,40.1688769 262.733298,40.5221372 C261.638908,40.8753976 260.37701,41.0520278 258.947603,41.0520278 C256.133459,41.0520278 253.989348,40.3344677 252.515273,38.8993475 C251.041197,37.4642272 250.170152,35.2232318 249.902138,32.1763612 L249.902138,32.1763612 L269.668155,32.1763612 C271.365575,32.1763612 272.214286,31.226974 272.214286,29.3281996 C272.214286,26.1488563 271.611255,23.3890097 270.405193,21.0486598 C269.199131,18.7083099 267.50171,16.8978506 265.312931,15.6172818 C263.124152,14.336713 260.555686,13.6964286 257.607534,13.6964286 C254.525376,13.6964286 251.767067,14.4029493 249.332609,15.8159907 C246.89815,17.2290322 245.010887,19.2161217 243.670818,21.7772593 C242.330749,24.338397 241.660714,27.2748737 241.660714,30.5866896 C241.660714,35.7972799 243.201794,39.9039316 246.283952,42.9066447 C249.366111,45.9093578 253.542659,47.4107143 258.813596,47.4107143 Z M264.839286,28.4464286 L250.089286,28.4464286 C250.350348,25.7275346 251.144411,23.6430492 252.471476,22.1929724 C253.798541,20.7428955 255.571587,20.0178571 257.790613,20.0178571 C259.966129,20.0178571 261.663032,20.7315668 262.881321,22.1589862 C264.09961,23.5864055 264.752265,25.6822197 264.839286,28.4464286 L264.839286,28.4464286 Z M292.456307,47.3922474 C294.070289,47.4815041 295.3144,47.2472051 296.18864,46.6893503 C297.06288,46.1314955 297.5,45.3170275 297.5,44.2459463 C297.5,42.3715542 296.379179,41.3674155 294.137538,41.2335304 L294.137538,41.2335304 L292.321809,41.0996452 C289.273176,40.8765033 287.74886,39.1136821 287.74886,35.8111817 L287.74886,35.8111817 L287.74886,20.6152169 L293.465046,20.6152169 C294.675532,20.6152169 295.605813,20.3474466 296.255889,19.811906 C296.905965,19.2763654 297.231003,18.4953686 297.231003,17.4689158 C297.231003,16.442463 296.905965,15.6614662 296.255889,15.1259256 C295.605813,14.590385 294.675532,14.3226147 293.465046,14.3226147 L293.465046,14.3226147 L287.74886,14.3226147 L287.74886,8.16389771 C287.74886,6.95893134 287.367781,5.99942108 286.605623,5.28536693 C285.843465,4.57131279 284.834726,4.21428571 283.579407,4.21428571 C282.279255,4.21428571 281.2481,4.57131279 280.485942,5.28536693 C279.723784,5.99942108 279.342705,6.95893134 279.342705,8.16389771 L279.342705,8.16389771 L279.342705,14.3226147 L275.980243,14.3226147 C274.769757,14.3226147 273.839476,14.590385 273.1894,15.1259256 C272.539324,15.6614662 272.214286,16.442463 272.214286,17.4689158 C272.214286,18.4953686 272.539324,19.2763654 273.1894,19.811906 C273.839476,20.3474466 274.769757,20.6152169 275.980243,20.6152169 L275.980243,20.6152169 L279.342705,20.6152169 L279.342705,35.2086985 C279.342705,42.706267 283.108663,46.7228216 290.640578,47.2583622 L290.640578,47.2583622 L292.456307,47.3922474 Z M315.674107,47.4107143 C317.561756,47.4107143 319.405506,47.1568084 321.205357,46.6489966 C323.005208,46.1411849 324.585565,45.4457035 325.946429,44.5625526 C326.692708,44.1209772 327.230469,43.6242048 327.55971,43.0722355 C327.888951,42.5202662 328.053571,41.8689424 328.053571,41.1182641 C328.053571,40.1909557 327.812128,39.4181986 327.329241,38.799993 C326.846354,38.1817874 326.25372,37.8726845 325.551339,37.8726845 C325.068452,37.8726845 324.585565,37.972039 324.102679,38.170748 C323.619792,38.3694569 323.049107,38.6675203 322.390625,39.0649383 C321.337054,39.6389863 320.382254,40.0916012 319.526228,40.4227828 C318.670201,40.7539644 317.693452,40.9195552 316.595982,40.9195552 C313.874256,40.9195552 311.778088,40.0253649 310.307478,38.2369843 C308.836868,36.4486037 308.101563,33.8985055 308.101563,30.5866896 C308.101563,27.2307162 308.836868,24.6585392 310.307478,22.8701586 C311.778088,21.081778 313.874256,20.1875877 316.595982,20.1875877 C317.737351,20.1875877 318.747024,20.3531785 319.625,20.6843601 C320.502976,21.0155417 321.424851,21.4681565 322.390625,22.0422046 C322.917411,22.3513074 323.444196,22.6162527 323.970982,22.8370404 C324.497768,23.0578281 325.002604,23.168222 325.485491,23.168222 C326.231771,23.168222 326.835379,22.8701586 327.296317,22.2740317 C327.757254,21.6779049 327.987723,20.8941084 327.987723,19.9226424 C327.987723,18.509601 327.285342,17.339426 325.88058,16.4121176 C324.563616,15.5731242 323.038132,14.9107611 321.304129,14.4250281 C319.570126,13.9392951 317.847098,13.6964286 316.135045,13.6964286 C312.886533,13.6964286 310.011161,14.4029493 307.508929,15.8159907 C305.006696,17.2290322 303.064174,19.2271611 301.681362,21.8103775 C300.298549,24.3935939 299.607143,27.3631888 299.607143,30.7191622 C299.607143,34.0751357 300.265625,37.0116124 301.582589,39.5285925 C302.899554,42.0455726 304.776228,43.9885045 307.212612,45.3573884 C309.648996,46.7262723 312.469494,47.4107143 315.674107,47.4107143 Z M335.394857,47.4107143 C336.608571,47.4107143 337.62,47.0685979 338.429143,46.384365 C339.238286,45.7001322 339.642857,44.717927 339.642857,43.4377494 L339.642857,43.4377494 L339.642857,3.9067488 C339.642857,2.62657123 339.238286,1.65540204 338.429143,0.993241221 C337.62,0.331080407 336.608571,0 335.394857,0 C334.181143,0 333.180952,0.331080407 332.394286,0.993241221 C331.607619,1.65540204 331.214286,2.62657123 331.214286,3.9067488 L331.214286,3.9067488 L331.214286,43.4377494 C331.214286,44.717927 331.607619,45.7001322 332.394286,46.384365 C333.180952,47.0685979 334.181143,47.4107143 335.394857,47.4107143 Z M359.694496,47.4107143 C363.072681,47.4107143 366.034223,46.7262723 368.579123,45.3573884 C371.124022,43.9885045 373.083369,42.0234938 374.457164,39.4623562 C375.83096,36.9012185 376.517857,33.9205842 376.517857,30.5204533 C376.517857,27.1203223 375.83096,24.1507274 374.457164,21.6116685 C373.083369,19.0726097 371.124022,17.1186383 368.579123,15.7497544 C366.034223,14.3808705 363.072681,13.6964286 359.694496,13.6964286 C356.316311,13.6964286 353.354769,14.3808705 350.80987,15.7497544 C348.26497,17.1186383 346.294363,19.0726097 344.898046,21.6116685 C343.50173,24.1507274 342.803571,27.1203223 342.803571,30.5204533 C342.803571,33.9205842 343.50173,36.9012185 344.898046,39.4623562 C346.294363,42.0234938 348.26497,43.9885045 350.80987,45.3573884 C353.354769,46.7262723 356.316311,47.4107143 359.694496,47.4107143 Z M359.102194,41.0892857 C356.563468,41.0892857 354.617111,40.2001959 353.263124,38.4220163 C351.909137,36.6438366 351.232143,34.0210217 351.232143,30.5535714 C351.232143,27.1305756 351.919715,24.5188743 353.294858,22.7184675 C354.670001,20.9180606 356.626936,20.0178571 359.165663,20.0178571 C361.704389,20.0178571 363.650746,20.9180606 365.004733,22.7184675 C366.358721,24.5188743 367.035714,27.1305756 367.035714,30.5535714 C367.035714,34.0210217 366.358721,36.6438366 365.004733,38.4220163 C363.650746,40.2001959 361.683233,41.0892857 359.102194,41.0892857 Z M390.792351,47.4107143 C393.0005,47.4107143 394.983328,46.9341481 396.740834,45.9810158 C398.498341,45.0278834 399.895333,43.6646825 400.931811,41.8914131 L400.931811,41.8914131 L400.931811,43.5538532 C400.931811,44.7064784 401.292325,45.615279 402.013353,46.280255 C402.734382,46.9452311 403.703263,47.2777191 404.919998,47.2777191 C406.181798,47.2777191 407.20701,46.9230652 407.995634,46.2137574 C408.784259,45.5044496 409.178571,44.5734831 409.178571,43.420858 L409.178571,43.420858 L409.178571,17.6197873 C409.178571,16.4228304 408.795525,15.469698 408.029433,14.7603903 C407.26334,14.0510825 406.226862,13.6964286 404.919998,13.6964286 C403.658199,13.6964286 402.644253,14.0510825 401.878161,14.7603903 C401.112068,15.469698 400.729022,16.4228304 400.729022,17.6197873 L400.729022,17.6197873 L400.729022,32.4487532 C400.729022,34.9756622 400.01926,37.0038391 398.599735,38.533284 C397.180211,40.0627289 395.298778,40.8274514 392.955436,40.8274514 C390.927544,40.8274514 389.440424,40.2733047 388.494074,39.1650113 C387.547724,38.0567179 387.07455,36.349946 387.07455,34.0446957 L387.07455,34.0446957 L387.07455,17.6197873 C387.07455,16.4228304 386.691503,15.469698 385.925411,14.7603903 C385.159318,14.0510825 384.12284,13.6964286 382.815977,13.6964286 C381.554177,13.6964286 380.540231,14.0510825 379.774139,14.7603903 C379.008046,15.469698 378.625,16.4228304 378.625,17.6197873 L378.625,17.6197873 L378.625,33.9781981 C378.625,42.9332089 382.680784,47.4107143 390.792351,47.4107143 Z M425.947037,47.4107143 C428.334288,47.4107143 430.462544,46.9044717 432.331806,45.8919867 C434.201069,44.8795016 435.631167,43.4708267 436.622101,41.665962 L436.622101,41.665962 L436.622101,43.3167529 C436.622101,44.5053223 437.004962,45.4517758 437.770684,46.1561132 C438.536406,46.8604507 439.549862,47.2126194 440.811051,47.2126194 C442.07224,47.2126194 443.085695,46.8604507 443.851417,46.1561132 C444.617139,45.4517758 445,44.5053223 445,43.3167529 L445,43.3167529 L445,3.82983486 C445,2.68528651 444.594618,1.76084361 443.783853,1.05650617 C442.973089,0.352168723 441.937112,0 440.675923,0 C439.414734,0 438.412539,0.34116345 437.669339,1.02349035 C436.926138,1.70581725 436.554538,2.59724433 436.554538,3.69777159 L436.554538,3.69777159 L436.554538,19.3472692 C435.563603,17.5864256 434.144766,16.2217718 432.298025,15.2533078 C430.451284,14.2848438 428.334288,13.8006118 425.947037,13.8006118 C423.064319,13.8006118 420.51942,14.4829387 418.312339,15.8475925 C416.105258,17.2122463 414.382384,19.1491743 413.143716,21.6583764 C411.905048,24.1675786 411.285714,27.0949811 411.285714,30.440584 C411.285714,33.7861868 411.905048,36.7466052 413.143716,39.3218389 C414.382384,41.8970727 416.116519,43.8890271 418.346121,45.2977019 C420.575723,46.7063768 423.109362,47.4107143 425.947037,47.4107143 Z M428.669643,41.0892857 C426.183214,41.0892857 424.244643,40.1527778 422.853929,38.2797619 C421.463214,36.406746 420.767857,33.7756047 420.767857,30.3863379 C420.767857,27.0416667 421.463214,24.4774187 422.853929,22.6935941 C424.244643,20.9097695 426.204286,20.0178571 428.732857,20.0178571 C431.219286,20.0178571 433.147321,20.9209184 434.516964,22.7270408 C435.886607,24.5331633 436.571429,27.1308579 436.571429,30.5201247 C436.571429,33.9093915 435.886607,36.5182351 434.516964,38.3466553 C433.147321,40.1750756 431.198214,41.0892857 428.669643,41.0892857 Z" id="innogetcloud" fill="#3186F6" fill-rule="nonzero"></path>
            <g id="Group-3-Copy-2" transform="translate(0.000000, 4.000000)">
                <path d="M70.4300229,27.5201189 C76.4178508,29.7724728 79.4117647,33.878408 79.4117647,39.8379246 C79.4117647,46.4334508 73.9833805,51.7801858 67.2871293,51.7801858 L43.5931715,51.7801858 L14.8087181,51.7801858 C6.63008895,51.7801858 0,45.2498241 0,37.1942179 C0,30.3266581 3.79473468,24.917695 11.384204,20.9673287 C16.4438503,6.98910958 24.0333196,0 34.1526121,0 C41.7422511,0 47.5443514,2.51277322 51.5589128,7.53831965" id="Combined-Shape" stroke="#1D7CEE" stroke-width="7" stroke-linecap="round" stroke-linejoin="round"></path>
                <ellipse id="Oval" fill="#EE8E1D" cx="60.4876161" cy="17.7631579" rx="8.93962848" ry="8.70743034"></ellipse>
            </g>
        </g>
    </g>
</svg>