<?xml version="1.0" encoding="UTF-8"?>
<svg width="286px" height="75px" viewBox="0 0 286 75" version="1.1" xmlns="http://www.w3.org/2000/svg" xmlns:xlink="http://www.w3.org/1999/xlink">
    <title>Group 8</title>
    <g id="Logos-Innoget-&amp;-InnogetCloud" stroke="none" stroke-width="1" fill="none" fill-rule="evenodd">
        <g id="Group-8" transform="translate(5.000000, 5.000000)">
            <path d="M76.2048368,48.5858803 C77.4193041,48.5858803 78.4313601,48.2372832 79.2410049,47.5400891 C80.0506498,46.8428949 80.4554722,45.8420839 80.4554722,44.5376561 L80.4554722,44.5376561 L80.4554722,18.4940806 C80.4554722,17.1896528 80.0506498,16.2000869 79.2410049,15.5253829 C78.4313601,14.8506788 77.4193041,14.5133268 76.2048368,14.5133268 C74.9903696,14.5133268 73.9895586,14.8506788 73.2024039,15.5253829 C72.4152492,16.2000869 72.0216718,17.1896528 72.0216718,18.4940806 L72.0216718,18.4940806 L72.0216718,44.5376561 C72.0216718,45.8420839 72.4152492,46.8428949 73.2024039,47.5400891 C73.9895586,48.2372832 74.9903696,48.5858803 76.2048368,48.5858803 Z M110.2549,48.5858803 C111.559328,48.5858803 112.582629,48.2260382 113.324804,47.5063539 C114.066978,46.7866696 114.438065,45.7971037 114.438065,44.5376561 L114.438065,44.5376561 L114.438065,27.939937 C114.438065,23.3969299 113.470989,20.0009196 111.536838,17.7519062 C109.602686,15.5028927 106.656479,14.378386 102.698215,14.378386 C100.314261,14.378386 98.177698,14.873169 96.2885268,15.8627349 C94.3993555,16.8523008 92.8925165,18.2691793 91.7680098,20.1133703 L91.7680098,20.1133703 L91.7680098,18.2916694 C91.7680098,17.1671627 91.3969225,16.2563122 90.6547481,15.5591181 C89.9125737,14.8619239 88.956743,14.5133268 87.787256,14.5133268 C86.4828282,14.5133268 85.448282,14.873169 84.6836175,15.5928533 C83.9189529,16.3125376 83.5366206,17.2571232 83.5366206,18.4266102 L83.5366206,18.4266102 L83.5366206,44.5376561 C83.5366206,45.7971037 83.9077078,46.7866696 84.6498823,47.5063539 C85.3920567,48.2260382 86.4153578,48.5858803 87.7197856,48.5858803 C89.0242134,48.5858803 90.0587596,48.2260382 90.8234241,47.5063539 C91.5880887,46.7866696 91.970421,45.7971037 91.970421,44.5376561 L91.970421,44.5376561 L91.970421,29.4917563 C91.970421,26.927881 92.7013503,24.8812787 94.1632091,23.3519496 C95.6250678,21.8226205 97.5704644,21.0579559 99.9993989,21.0579559 C102.068491,21.0579559 103.586575,21.6426994 104.553651,22.8121864 C105.520727,23.9816734 106.004265,25.8483545 106.004265,28.4122298 L106.004265,28.4122298 L106.004265,44.5376561 C106.004265,45.7971037 106.386597,46.7866696 107.151262,47.5063539 C107.915926,48.2260382 108.950472,48.5858803 110.2549,48.5858803 Z M144.102552,48.5858803 C145.40698,48.5858803 146.430281,48.2260382 147.172456,47.5063539 C147.91463,46.7866696 148.285717,45.7971037 148.285717,44.5376561 L148.285717,44.5376561 L148.285717,27.939937 C148.285717,23.3969299 147.318642,20.0009196 145.38449,17.7519062 C143.450338,15.5028927 140.504131,14.378386 136.545867,14.378386 C134.161913,14.378386 132.02535,14.873169 130.136179,15.8627349 C128.247008,16.8523008 126.740169,18.2691793 125.615662,20.1133703 L125.615662,20.1133703 L125.615662,18.2916694 C125.615662,17.1671627 125.244575,16.2563122 124.5024,15.5591181 C123.760226,14.8619239 122.804395,14.5133268 121.634908,14.5133268 C120.33048,14.5133268 119.295934,14.873169 118.53127,15.5928533 C117.766605,16.3125376 117.384273,17.2571232 117.384273,18.4266102 L117.384273,18.4266102 L117.384273,44.5376561 C117.384273,45.7971037 117.75536,46.7866696 118.497534,47.5063539 C119.239709,48.2260382 120.26301,48.5858803 121.567438,48.5858803 C122.871866,48.5858803 123.906412,48.2260382 124.671076,47.5063539 C125.435741,46.7866696 125.818073,45.7971037 125.818073,44.5376561 L125.818073,44.5376561 L125.818073,29.4917563 C125.818073,26.927881 126.549003,24.8812787 128.010861,23.3519496 C129.47272,21.8226205 131.418117,21.0579559 133.847051,21.0579559 C135.916143,21.0579559 137.434228,21.6426994 138.401303,22.8121864 C139.368379,23.9816734 139.851917,25.8483545 139.851917,28.4122298 L139.851917,28.4122298 L139.851917,44.5376561 C139.851917,45.7971037 140.234249,46.7866696 140.998914,47.5063539 C141.763578,48.2260382 142.798125,48.5858803 144.102552,48.5858803 Z M167.964585,48.7208211 C171.338105,48.7208211 174.295558,48.023627 176.836943,46.6292386 C179.378328,45.2348503 181.33497,43.2332284 182.706868,40.6243728 C184.078766,38.0155172 184.764715,34.9793491 184.764715,31.5158684 C184.764715,28.0523877 184.078766,25.0274646 182.706868,22.4410992 C181.33497,19.8547337 179.378328,17.8643568 176.836943,16.4699685 C174.295558,15.0755802 171.338105,14.378386 167.964585,14.378386 C164.591065,14.378386 161.633612,15.0755802 159.092227,16.4699685 C156.550842,17.8643568 154.582955,19.8547337 153.188567,22.4410992 C151.794178,25.0274646 151.096984,28.0523877 151.096984,31.5158684 C151.096984,34.9793491 151.794178,38.0155172 153.188567,40.6243728 C154.582955,43.2332284 156.550842,45.2348503 159.092227,46.6292386 C161.633612,48.023627 164.591065,48.7208211 167.964585,48.7208211 Z M167.897114,42.176192 C165.198298,42.176192 163.129206,41.2765867 161.689837,39.4773759 C160.250469,37.6781652 159.530784,35.0243293 159.530784,31.5158684 C159.530784,28.0523877 160.261714,25.4097969 161.723573,23.588096 C163.185431,21.7663951 165.265769,20.8555447 167.964585,20.8555447 C170.663401,20.8555447 172.732493,21.7663951 174.171862,23.588096 C175.611231,25.4097969 176.330915,28.0523877 176.330915,31.5158684 C176.330915,35.0243293 175.611231,37.6781652 174.171862,39.4773759 C172.732493,41.2765867 170.640911,42.176192 167.897114,42.176192 Z M204.511053,60.8654937 C210.133587,60.8654937 214.384222,59.5385757 217.262959,56.8847399 C220.141697,54.230904 221.581065,50.3176207 221.581065,45.1448898 L221.581065,45.1448898 L221.581065,18.4940806 C221.581065,17.2796133 221.198733,16.3125376 220.434068,15.5928533 C219.669404,14.873169 218.657348,14.5133268 217.3979,14.5133268 C216.138453,14.5133268 215.126397,14.873169 214.361732,15.5928533 C213.597067,16.3125376 213.214735,17.2571232 213.214735,18.4266102 L213.214735,18.4266102 L213.214735,20.1808407 C212.225169,18.3366497 210.785801,16.9085261 208.896629,15.8964701 C207.007458,14.884414 204.848405,14.378386 202.419471,14.378386 C199.540733,14.378386 196.976858,15.0643351 194.727845,16.4362333 C192.478831,17.8081315 190.735846,19.7422831 189.498888,22.238688 C188.261931,24.7350929 187.643452,27.602585 187.643452,30.8411643 C187.643452,34.0797437 188.273176,36.9359907 189.532624,39.4099055 C190.792071,41.8838203 192.535057,43.8067268 194.76158,45.178625 C196.988103,46.5505232 199.540733,47.2364723 202.419471,47.2364723 C204.848405,47.2364723 207.007458,46.7304442 208.896629,45.7183882 C210.785801,44.7063322 212.225169,43.2782086 213.214735,41.4340176 L213.214735,41.4340176 L213.214735,45.7521234 C213.214735,51.5095978 210.268528,54.388335 204.376112,54.388335 C202.711842,54.388335 201.238739,54.2084139 199.956801,53.8485718 C198.674863,53.4887296 197.22425,52.9714565 195.60496,52.2967525 C194.975236,52.0268709 194.368003,51.7907245 193.783259,51.5883133 C193.198516,51.3859021 192.703733,51.2846964 192.29891,51.2846964 C191.534246,51.2846964 190.915767,51.5770682 190.443474,52.1618117 C189.971181,52.7465552 189.735035,53.5337099 189.735035,54.5232758 C189.735035,55.9176641 190.56717,57.1096412 192.23144,58.0992071 C195.514999,59.9433982 199.608204,60.8654937 204.511053,60.8654937 Z M204.645994,40.6918432 C201.992158,40.6918432 199.900576,39.8147279 198.371246,38.0604975 C196.841917,36.306267 196.077253,33.8998226 196.077253,30.8411643 C196.077253,27.7375258 196.841917,25.3085913 198.371246,23.5543608 C199.900576,21.8001303 201.992158,20.9230151 204.645994,20.9230151 C207.34481,20.9230151 209.447638,21.8001303 210.954477,23.5543608 C212.461316,25.3085913 213.214735,27.7375258 213.214735,30.8411643 C213.214735,33.8998226 212.461316,36.306267 210.954477,38.0604975 C209.447638,39.8147279 207.34481,40.6918432 204.645994,40.6918432 Z M241.799696,48.7208211 C243.553926,48.7208211 245.398117,48.4621846 247.332269,47.9449115 C249.26642,47.4276384 250.998161,46.7416893 252.52749,45.8870642 C254.19176,44.9424786 255.023895,43.7729916 255.023895,42.3786033 C255.023895,41.3890373 254.787748,40.6018826 254.315456,40.0171391 C253.843163,39.4323957 253.224684,39.1400239 252.46002,39.1400239 C251.830296,39.1400239 250.84073,39.4998661 249.491322,40.2195504 C248.096933,40.8492741 246.848731,41.3440571 245.746714,41.7038992 C244.644698,42.0637414 243.374005,42.2436624 241.934637,42.2436624 C239.10088,42.2436624 236.941827,41.5127331 235.457478,40.0508743 C233.973129,38.5890156 233.096014,36.306267 232.826132,33.2026284 L232.826132,33.2026284 L252.729901,33.2026284 C254.439151,33.2026284 255.293776,32.2355527 255.293776,30.3014011 C255.293776,27.0628218 254.686543,24.251555 253.472076,21.8676007 C252.257608,19.4836465 250.548358,17.6394555 248.344325,16.3350277 C246.140292,15.0305999 243.553926,14.378386 240.585229,14.378386 C237.48159,14.378386 234.704058,15.0980703 232.252634,16.5374389 C229.801209,17.9768075 227.900793,20.0009196 226.551385,22.6097752 C225.201977,25.2186308 224.527273,28.2098186 224.527273,31.5833388 C224.527273,36.8910105 226.079092,41.0741755 229.182731,44.1328337 C232.286369,47.191492 236.492024,48.7208211 241.799696,48.7208211 Z M248.074443,28.6821114 L232.826132,28.6821114 C233.096014,25.9832953 233.916904,23.914203 235.288802,22.4748344 C236.6607,21.0354658 238.493646,20.3157815 240.78764,20.3157815 C243.036653,20.3157815 244.790884,21.0242207 246.050331,22.4410992 C247.309779,23.8579776 247.984483,25.9383151 248.074443,28.6821114 L248.074443,28.6821114 Z M275.93972,48.5184099 C277.559009,48.6083705 278.807212,48.3722241 279.684327,47.8099707 C280.561442,47.2477173 281,46.4268274 281,45.347301 C281,43.4581297 279.875493,42.4460737 277.62648,42.3111328 L277.62648,42.3111328 L275.804779,42.176192 C272.746121,41.9512907 271.216792,40.1745701 271.216792,36.8460302 L271.216792,36.8460302 L271.216792,21.5302487 L276.951776,21.5302487 C278.166243,21.5302487 279.099584,21.2603671 279.751798,20.7206039 C280.404011,20.1808407 280.730118,19.393686 280.730118,18.3591398 C280.730118,17.3245936 280.404011,16.5374389 279.751798,15.9976757 C279.099584,15.4579125 278.166243,15.1880309 276.951776,15.1880309 L276.951776,15.1880309 L271.216792,15.1880309 L271.216792,8.98075378 C271.216792,7.76628652 270.834459,6.79921075 270.069795,6.07952645 C269.30513,5.35984215 268.293074,5 267.033627,5 C265.729199,5 264.694653,5.35984215 263.929988,6.07952645 C263.165323,6.79921075 262.782991,7.76628652 262.782991,8.98075378 L262.782991,8.98075378 L262.782991,15.1880309 L259.409471,15.1880309 C258.195004,15.1880309 257.261663,15.4579125 256.609449,15.9976757 C255.957235,16.5374389 255.631128,17.3245936 255.631128,18.3591398 C255.631128,19.393686 255.957235,20.1808407 256.609449,20.7206039 C257.261663,21.2603671 258.195004,21.5302487 259.409471,21.5302487 L259.409471,21.5302487 L262.782991,21.5302487 L262.782991,36.2387966 C262.782991,43.7954817 266.561334,47.8437059 274.118019,48.3834691 L274.118019,48.3834691 L275.93972,48.5184099 Z" id="innoget" fill="#3186F6" fill-rule="nonzero"></path>
            <line x1="0.589285714" y1="41.0535714" x2="0.589285714" y2="64.553571" id="Line" stroke="#1D7CEE" stroke-width="10" stroke-linecap="round" stroke-linejoin="round"></line>
            <line x1="17.0892857" y1="26.9196429" x2="17.0892857" y2="64.544643" id="Line-Copy" stroke="#1D7CEE" stroke-width="10" stroke-linecap="round" stroke-linejoin="round"></line>
            <line x1="33.5892857" y1="12.9642857" x2="33.5892857" y2="64.357143" id="Line-Copy-2" stroke="#1D7CEE" stroke-width="10" stroke-linecap="round" stroke-linejoin="round"></line>
            <line x1="50.0892857" y1="2.77275651e-14" x2="50.0892857" y2="64.357143" id="Line-Copy-3" stroke="#1D7CEE" stroke-width="10" stroke-linecap="round" stroke-linejoin="round"></line>
            <circle id="Oval-Copy-2" stroke="#FFFFFF" fill="#EE8E1D" cx="51" cy="19.9642857" r="12.5"></circle>
        </g>
    </g>
</svg>