<?xml version="1.0" encoding="UTF-8"?>
<svg width="304px" height="59px" viewBox="0 0 304 59" version="1.1" xmlns="http://www.w3.org/2000/svg" xmlns:xlink="http://www.w3.org/1999/xlink">
    <!-- Generator: Sketch 63 (92445) - https://sketch.com -->
    <title>Group Copy 2</title>
    <desc>Created with Sketch.</desc>
    <g id="Screens" stroke="none" stroke-width="1" fill="none" fill-rule="evenodd">
        <g id="Group-Copy-2" transform="translate(4.000000, 2.000000)">
            <path d="M95.2048368,43.5858803 C96.4193041,43.5858803 97.4313601,43.2372832 98.2410049,42.5400891 C99.0506498,41.8428949 99.4554722,40.8420839 99.4554722,39.5376561 L99.4554722,39.5376561 L99.4554722,13.4940806 C99.4554722,12.1896528 99.0506498,11.2000869 98.2410049,10.5253829 C97.4313601,9.85067884 96.4193041,9.51332682 95.2048368,9.51332682 C93.9903696,9.51332682 92.9895586,9.85067884 92.2024039,10.5253829 C91.4152492,11.2000869 91.0216718,12.1896528 91.0216718,13.4940806 L91.0216718,13.4940806 L91.0216718,39.5376561 C91.0216718,40.8420839 91.4152492,41.8428949 92.2024039,42.5400891 C92.9895586,43.2372832 93.9903696,43.5858803 95.2048368,43.5858803 Z M129.2549,43.5858803 C130.559328,43.5858803 131.582629,43.2260382 132.324804,42.5063539 C133.066978,41.7866696 133.438065,40.7971037 133.438065,39.5376561 L133.438065,39.5376561 L133.438065,22.939937 C133.438065,18.3969299 132.470989,15.0009196 130.536838,12.7519062 C128.602686,10.5028927 125.656479,9.37838601 121.698215,9.37838601 C119.314261,9.37838601 117.177698,9.87316897 115.288527,10.8627349 C113.399355,11.8523008 111.892516,13.2691793 110.76801,15.1133703 L110.76801,15.1133703 L110.76801,13.2916694 C110.76801,12.1671627 110.396923,11.2563122 109.654748,10.5591181 C108.912574,9.8619239 107.956743,9.51332682 106.787256,9.51332682 C105.482828,9.51332682 104.448282,9.87316897 103.683617,10.5928533 C102.918953,11.3125376 102.536621,12.2571232 102.536621,13.4266102 L102.536621,13.4266102 L102.536621,39.5376561 C102.536621,40.7971037 102.907708,41.7866696 103.649882,42.5063539 C104.392057,43.2260382 105.415358,43.5858803 106.719786,43.5858803 C108.024213,43.5858803 109.05876,43.2260382 109.823424,42.5063539 C110.588089,41.7866696 110.970421,40.7971037 110.970421,39.5376561 L110.970421,39.5376561 L110.970421,24.4917563 C110.970421,21.927881 111.70135,19.8812787 113.163209,18.3519496 C114.625068,16.8226205 116.570464,16.0579559 118.999399,16.0579559 C121.068491,16.0579559 122.586575,16.6426994 123.553651,17.8121864 C124.520727,18.9816734 125.004265,20.8483545 125.004265,23.4122298 L125.004265,23.4122298 L125.004265,39.5376561 C125.004265,40.7971037 125.386597,41.7866696 126.151262,42.5063539 C126.915926,43.2260382 127.950472,43.5858803 129.2549,43.5858803 Z M163.102552,43.5858803 C164.40698,43.5858803 165.430281,43.2260382 166.172456,42.5063539 C166.91463,41.7866696 167.285717,40.7971037 167.285717,39.5376561 L167.285717,39.5376561 L167.285717,22.939937 C167.285717,18.3969299 166.318642,15.0009196 164.38449,12.7519062 C162.450338,10.5028927 159.504131,9.37838601 155.545867,9.37838601 C153.161913,9.37838601 151.02535,9.87316897 149.136179,10.8627349 C147.247008,11.8523008 145.740169,13.2691793 144.615662,15.1133703 L144.615662,15.1133703 L144.615662,13.2916694 C144.615662,12.1671627 144.244575,11.2563122 143.5024,10.5591181 C142.760226,9.8619239 141.804395,9.51332682 140.634908,9.51332682 C139.33048,9.51332682 138.295934,9.87316897 137.53127,10.5928533 C136.766605,11.3125376 136.384273,12.2571232 136.384273,13.4266102 L136.384273,13.4266102 L136.384273,39.5376561 C136.384273,40.7971037 136.75536,41.7866696 137.497534,42.5063539 C138.239709,43.2260382 139.26301,43.5858803 140.567438,43.5858803 C141.871866,43.5858803 142.906412,43.2260382 143.671076,42.5063539 C144.435741,41.7866696 144.818073,40.7971037 144.818073,39.5376561 L144.818073,39.5376561 L144.818073,24.4917563 C144.818073,21.927881 145.549003,19.8812787 147.010861,18.3519496 C148.47272,16.8226205 150.418117,16.0579559 152.847051,16.0579559 C154.916143,16.0579559 156.434228,16.6426994 157.401303,17.8121864 C158.368379,18.9816734 158.851917,20.8483545 158.851917,23.4122298 L158.851917,23.4122298 L158.851917,39.5376561 C158.851917,40.7971037 159.234249,41.7866696 159.998914,42.5063539 C160.763578,43.2260382 161.798125,43.5858803 163.102552,43.5858803 Z M186.964585,43.7208211 C190.338105,43.7208211 193.295558,43.023627 195.836943,41.6292386 C198.378328,40.2348503 200.33497,38.2332284 201.706868,35.6243728 C203.078766,33.0155172 203.764715,29.9793491 203.764715,26.5158684 C203.764715,23.0523877 203.078766,20.0274646 201.706868,17.4410992 C200.33497,14.8547337 198.378328,12.8643568 195.836943,11.4699685 C193.295558,10.0755802 190.338105,9.37838601 186.964585,9.37838601 C183.591065,9.37838601 180.633612,10.0755802 178.092227,11.4699685 C175.550842,12.8643568 173.582955,14.8547337 172.188567,17.4410992 C170.794178,20.0274646 170.096984,23.0523877 170.096984,26.5158684 C170.096984,29.9793491 170.794178,33.0155172 172.188567,35.6243728 C173.582955,38.2332284 175.550842,40.2348503 178.092227,41.6292386 C180.633612,43.023627 183.591065,43.7208211 186.964585,43.7208211 Z M186.897114,37.176192 C184.198298,37.176192 182.129206,36.2765867 180.689837,34.4773759 C179.250469,32.6781652 178.530784,30.0243293 178.530784,26.5158684 C178.530784,23.0523877 179.261714,20.4097969 180.723573,18.588096 C182.185431,16.7663951 184.265769,15.8555447 186.964585,15.8555447 C189.663401,15.8555447 191.732493,16.7663951 193.171862,18.588096 C194.611231,20.4097969 195.330915,23.0523877 195.330915,26.5158684 C195.330915,30.0243293 194.611231,32.6781652 193.171862,34.4773759 C191.732493,36.2765867 189.640911,37.176192 186.897114,37.176192 Z M223.511053,55.8654937 C229.133587,55.8654937 233.384222,54.5385757 236.262959,51.8847399 C239.141697,49.230904 240.581065,45.3176207 240.581065,40.1448898 L240.581065,40.1448898 L240.581065,13.4940806 C240.581065,12.2796133 240.198733,11.3125376 239.434068,10.5928533 C238.669404,9.87316897 237.657348,9.51332682 236.3979,9.51332682 C235.138453,9.51332682 234.126397,9.87316897 233.361732,10.5928533 C232.597067,11.3125376 232.214735,12.2571232 232.214735,13.4266102 L232.214735,13.4266102 L232.214735,15.1808407 C231.225169,13.3366497 229.785801,11.9085261 227.896629,10.8964701 C226.007458,9.88441404 223.848405,9.37838601 221.419471,9.37838601 C218.540733,9.37838601 215.976858,10.0643351 213.727845,11.4362333 C211.478831,12.8081315 209.735846,14.7422831 208.498888,17.238688 C207.261931,19.7350929 206.643452,22.602585 206.643452,25.8411643 C206.643452,29.0797437 207.273176,31.9359907 208.532624,34.4099055 C209.792071,36.8838203 211.535057,38.8067268 213.76158,40.178625 C215.988103,41.5505232 218.540733,42.2364723 221.419471,42.2364723 C223.848405,42.2364723 226.007458,41.7304442 227.896629,40.7183882 C229.785801,39.7063322 231.225169,38.2782086 232.214735,36.4340176 L232.214735,36.4340176 L232.214735,40.7521234 C232.214735,46.5095978 229.268528,49.388335 223.376112,49.388335 C221.711842,49.388335 220.238739,49.2084139 218.956801,48.8485718 C217.674863,48.4887296 216.22425,47.9714565 214.60496,47.2967525 C213.975236,47.0268709 213.368003,46.7907245 212.783259,46.5883133 C212.198516,46.3859021 211.703733,46.2846964 211.29891,46.2846964 C210.534246,46.2846964 209.915767,46.5770682 209.443474,47.1618117 C208.971181,47.7465552 208.735035,48.5337099 208.735035,49.5232758 C208.735035,50.9176641 209.56717,52.1096412 211.23144,53.0992071 C214.514999,54.9433982 218.608204,55.8654937 223.511053,55.8654937 Z M223.645994,35.6918432 C220.992158,35.6918432 218.900576,34.8147279 217.371246,33.0604975 C215.841917,31.306267 215.077253,28.8998226 215.077253,25.8411643 C215.077253,22.7375258 215.841917,20.3085913 217.371246,18.5543608 C218.900576,16.8001303 220.992158,15.9230151 223.645994,15.9230151 C226.34481,15.9230151 228.447638,16.8001303 229.954477,18.5543608 C231.461316,20.3085913 232.214735,22.7375258 232.214735,25.8411643 C232.214735,28.8998226 231.461316,31.306267 229.954477,33.0604975 C228.447638,34.8147279 226.34481,35.6918432 223.645994,35.6918432 Z M260.799696,43.7208211 C262.553926,43.7208211 264.398117,43.4621846 266.332269,42.9449115 C268.26642,42.4276384 269.998161,41.7416893 271.52749,40.8870642 C273.19176,39.9424786 274.023895,38.7729916 274.023895,37.3786033 C274.023895,36.3890373 273.787748,35.6018826 273.315456,35.0171391 C272.843163,34.4323957 272.224684,34.1400239 271.46002,34.1400239 C270.830296,34.1400239 269.84073,34.4998661 268.491322,35.2195504 C267.096933,35.8492741 265.848731,36.3440571 264.746714,36.7038992 C263.644698,37.0637414 262.374005,37.2436624 260.934637,37.2436624 C258.10088,37.2436624 255.941827,36.5127331 254.457478,35.0508743 C252.973129,33.5890156 252.096014,31.306267 251.826132,28.2026284 L251.826132,28.2026284 L271.729901,28.2026284 C273.439151,28.2026284 274.293776,27.2355527 274.293776,25.3014011 C274.293776,22.0628218 273.686543,19.251555 272.472076,16.8676007 C271.257608,14.4836465 269.548358,12.6394555 267.344325,11.3350277 C265.140292,10.0305999 262.553926,9.37838601 259.585229,9.37838601 C256.48159,9.37838601 253.704058,10.0980703 251.252634,11.5374389 C248.801209,12.9768075 246.900793,15.0009196 245.551385,17.6097752 C244.201977,20.2186308 243.527273,23.2098186 243.527273,26.5833388 C243.527273,31.8910105 245.079092,36.0741755 248.182731,39.1328337 C251.286369,42.191492 255.492024,43.7208211 260.799696,43.7208211 Z M267.074443,23.6821114 L251.826132,23.6821114 C252.096014,20.9832953 252.916904,18.914203 254.288802,17.4748344 C255.6607,16.0354658 257.493646,15.3157815 259.78764,15.3157815 C262.036653,15.3157815 263.790884,16.0242207 265.050331,17.4410992 C266.309779,18.8579776 266.984483,20.9383151 267.074443,23.6821114 L267.074443,23.6821114 Z M294.93972,43.5184099 C296.559009,43.6083705 297.807212,43.3722241 298.684327,42.8099707 C299.561442,42.2477173 300,41.4268274 300,40.347301 C300,38.4581297 298.875493,37.4460737 296.62648,37.3111328 L296.62648,37.3111328 L294.804779,37.176192 C291.746121,36.9512907 290.216792,35.1745701 290.216792,31.8460302 L290.216792,31.8460302 L290.216792,16.5302487 L295.951776,16.5302487 C297.166243,16.5302487 298.099584,16.2603671 298.751798,15.7206039 C299.404011,15.1808407 299.730118,14.393686 299.730118,13.3591398 C299.730118,12.3245936 299.404011,11.5374389 298.751798,10.9976757 C298.099584,10.4579125 297.166243,10.1880309 295.951776,10.1880309 L295.951776,10.1880309 L290.216792,10.1880309 L290.216792,3.98075378 C290.216792,2.76628652 289.834459,1.79921075 289.069795,1.07952645 C288.30513,0.359842149 287.293074,1.51787767e-15 286.033627,1.51787767e-15 C284.729199,1.51787767e-15 283.694653,0.359842149 282.929988,1.07952645 C282.165323,1.79921075 281.782991,2.76628652 281.782991,3.98075378 L281.782991,3.98075378 L281.782991,10.1880309 L278.409471,10.1880309 C277.195004,10.1880309 276.261663,10.4579125 275.609449,10.9976757 C274.957235,11.5374389 274.631128,12.3245936 274.631128,13.3591398 C274.631128,14.393686 274.957235,15.1808407 275.609449,15.7206039 C276.261663,16.2603671 277.195004,16.5302487 278.409471,16.5302487 L278.409471,16.5302487 L281.782991,16.5302487 L281.782991,31.2387966 C281.782991,38.7954817 285.561334,42.8437059 293.118019,43.3834691 L293.118019,43.3834691 L294.93972,43.5184099 Z" id="innoget" fill="#3186F6" fill-rule="nonzero"></path>
            <g id="Group-3-Copy" transform="translate(0.000000, 1.625387)">
                <path d="M70.4300229,27.5201189 C76.4178508,29.7724728 79.4117647,33.878408 79.4117647,39.8379246 C79.4117647,46.4334508 73.9833805,51.7801858 67.2871293,51.7801858 L43.5931715,51.7801858 L14.8087181,51.7801858 C6.63008895,51.7801858 0,45.2498241 0,37.1942179 C0,30.3266581 3.79473468,24.917695 11.384204,20.9673287 C16.4438503,6.98910958 24.0333196,0 34.1526121,0 C41.7422511,0 47.5443514,2.51277322 51.5589128,7.53831965" id="Combined-Shape" stroke="#1D7CEE" stroke-width="7" stroke-linecap="round" stroke-linejoin="round"></path>
                <ellipse id="Oval" fill="#EE8E1D" cx="60.4876161" cy="17.7631579" rx="8.93962848" ry="8.70743034"></ellipse>
            </g>
        </g>
    </g>
</svg>